<?xml version="1.0" encoding="UTF-8"?>
<svg id="Layer_1" xmlns="http://www.w3.org/2000/svg" version="1.1" viewBox="0 0 512 512">
  <!-- Generator: Adobe Illustrator 29.8.1, SVG Export Plug-In . SVG Version: 2.1.1 Build 2)  -->
  <defs>
    <style>
      .st0 {
        fill: #26b4e9;
      }
    </style>
  </defs>
  <g id="Layer_2">
    <path class="st0" d="M256,21.3c-129.4-.2-234.5,104.6-234.7,234,0,39.7,10,78.8,29.2,113.6l-28.3,94.3c-3.4,11.3,3,23.2,14.3,26.6,2,.6,4.1.9,6.1.9,2.1,0,4.1-.3,6.1-.9l94.3-28.3c113.5,62.6,256.2,21.3,318.8-92.1,62.6-113.5,21.3-256.2-92.1-318.8-34.8-19.2-74-29.3-113.8-29.2ZM256,448c-35,0-69.3-9.7-99.2-27.9-3.3-2-7.2-3.1-11.1-3.1-2.1,0-4.1.3-6.1.9l-65.2,19.6,19.5-65.2c1.7-5.7.9-11.9-2.1-17.1-54.7-90.7-25.6-208.6,65.1-263.4,90.7-54.7,208.6-25.6,263.4,65.1,54.7,90.7,25.6,208.6-65.1,263.4-30,18.1-64.3,27.6-99.3,27.6h0Z"/>
  </g>
</svg>