<svg width="338" height="52" viewBox="0 0 338 52" fill="none" xmlns="http://www.w3.org/2000/svg">
<path d="M38.7643 16.6022C38.7088 15.6167 37.8904 14.8532 36.9056 14.8532H29.4848V9.28671C29.4848 4.16444 25.3375 0 20.2054 0C15.0732 0 10.9259 4.15056 10.9259 9.28671V14.8532H3.50509C2.52028 14.8532 1.70191 15.6167 1.64643 16.6022L0.0096908 46.1143C-0.170628 49.1821 2.18738 51.8195 5.2528 51.9861C5.36376 51.9861 5.47473 51.9861 5.57182 51.9861H34.8389C37.9182 51.9861 40.4149 49.5013 40.4149 46.4197C40.4149 46.3086 40.4149 46.1975 40.4149 46.1004L38.7643 16.5884V16.6022ZM14.6432 9.28671C14.6432 6.20502 17.1399 3.72024 20.2054 3.72024C23.2708 3.72024 25.7675 6.2189 25.7675 9.28671V14.8532H14.6294V9.28671H14.6432Z" fill="#26B4E9"/>
<path d="M54.6739 31.5526H52.4407V28.1933H54.6739V26.8884C54.6739 24.9589 55.1733 23.4875 56.1026 22.5574C57.0319 21.6274 58.3358 21.1554 60.0696 21.1554C61.4705 21.1554 62.4276 21.3497 63.3292 21.6274V25.0283C62.5247 24.7646 61.8312 24.598 60.9712 24.598C59.4454 24.598 58.6409 25.4309 58.6409 27.2632V28.2349H63.3015V31.5665H58.7103V45.6978H54.6878V31.5665L54.6739 31.5526Z" fill="#26B4E9"/>
<path d="M66.2975 28.0961H70.32V32.0662C71.4158 29.4288 73.4548 27.6381 76.5479 27.763V32.0246H76.3121C72.789 32.0246 70.32 34.3289 70.32 38.9931V45.684H66.2975V28.0961Z" fill="#26B4E9"/>
<path d="M80.1127 21.558H84.4403V25.3893H80.1127V21.558ZM80.2791 28.0962H84.3016V45.684H80.2791V28.0962Z" fill="#26B4E9"/>
<path d="M88.6709 36.9247V36.8553C88.6709 31.0251 92.6379 27.7213 96.8268 27.7213C99.7258 27.7213 101.557 29.1511 102.819 30.8169V21.3497H106.841V45.6701H102.819V42.7411C101.515 44.5734 99.6842 46.0449 96.8268 46.0449C92.6934 46.0449 88.6709 42.7411 88.6709 36.9109V36.9247ZM102.888 36.9247V36.8553C102.888 33.4544 100.489 31.2195 97.7978 31.2195C95.1069 31.2195 92.735 33.3572 92.735 36.8553V36.9247C92.735 40.3257 95.0652 42.5606 97.7978 42.5606C100.53 42.5606 102.888 40.2979 102.888 36.9247Z" fill="#26B4E9"/>
<path d="M110.739 40.6172V40.5478C110.739 36.7442 113.707 34.8841 117.993 34.8841C119.963 34.8841 121.35 35.1895 122.723 35.6199V35.1895C122.723 32.6909 121.198 31.3582 118.368 31.3582C116.398 31.3582 114.942 31.7886 113.347 32.4549L112.279 29.2899C114.207 28.4292 116.107 27.8601 118.909 27.8601C121.544 27.8601 123.5 28.5542 124.735 29.8313C126.038 31.0945 126.635 32.9685 126.635 35.2589V45.6839H122.709V43.4906C121.517 44.9204 119.686 46.0587 116.981 46.0587C113.68 46.0587 110.753 44.157 110.753 40.6311L110.739 40.6172ZM122.793 39.354V38.1602C121.766 37.7576 120.393 37.4661 118.798 37.4661C116.204 37.4661 114.664 38.5627 114.664 40.3951V40.4645C114.664 42.158 116.162 43.1297 118.091 43.1297C120.754 43.1297 122.779 41.6028 122.779 39.3679L122.793 39.354Z" fill="#26B4E9"/>
<path d="M142.961 28.0962H147.15L140.159 46.1837C138.758 49.779 137.19 51.1116 134.361 51.1116C132.696 51.1116 131.434 50.7091 130.2 50.0428L131.559 47.0444C132.294 47.4469 133.085 47.7107 133.917 47.7107C135.054 47.7107 135.748 47.2109 136.414 45.7117L129.09 28.0823H133.418L138.383 41.1447L142.947 28.0823L142.961 28.0962Z" fill="#26B4E9"/>
<path d="M160.576 48.9878L162.074 45.9616C163.975 47.1276 165.93 47.8217 168.33 47.8217C171.923 47.8217 173.892 45.9616 173.892 42.4218V41.0614C172.422 42.9632 170.591 44.2958 167.706 44.2958C163.572 44.2958 159.716 41.228 159.716 36.0641V35.9947C159.716 30.803 163.614 27.7352 167.706 27.7352C170.674 27.7352 172.505 29.0956 173.864 30.7336V28.0961H177.887V42.0887C177.887 45.0593 177.124 47.2526 175.654 48.724C174.059 50.3204 171.59 51.0839 168.427 51.0839C165.528 51.0839 162.837 50.3482 160.562 48.9878H160.576ZM173.92 36.0225V35.9531C173.92 33.0935 171.562 31.1223 168.76 31.1223C165.958 31.1223 163.767 33.0518 163.767 35.9531V36.0225C163.767 38.8821 166 40.8532 168.76 40.8532C171.52 40.8532 173.92 38.8821 173.92 36.0225Z" fill="#26B4E9"/>
<path d="M181.979 36.9942V36.9248C181.979 31.8997 185.973 27.7352 191.369 27.7352C196.765 27.7352 200.732 31.8303 200.732 36.8692V36.9386C200.732 41.936 196.737 46.1004 191.314 46.1004C185.89 46.1004 181.993 42.0054 181.993 37.0081L181.979 36.9942ZM196.696 36.9942V36.9248C196.696 33.8292 194.462 31.2611 191.3 31.2611C188.137 31.2611 186.001 33.7876 186.001 36.8554V36.9248C186.001 39.9926 188.234 42.5606 191.355 42.5606C194.476 42.5606 196.682 40.0342 196.682 36.9942H196.696Z" fill="#26B4E9"/>
<path d="M203.853 36.9942V36.9248C203.853 31.8997 207.848 27.7352 213.243 27.7352C218.639 27.7352 222.606 31.8303 222.606 36.8692V36.9386C222.606 41.936 218.611 46.1004 213.188 46.1004C207.764 46.1004 203.867 42.0054 203.867 37.0081L203.853 36.9942ZM218.57 36.9942V36.9248C218.57 33.8292 216.336 31.2611 213.174 31.2611C210.011 31.2611 207.875 33.7876 207.875 36.8554V36.9248C207.875 39.9926 210.108 42.5606 213.229 42.5606C216.35 42.5606 218.556 40.0342 218.556 36.9942H218.57Z" fill="#26B4E9"/>
<path d="M225.782 36.9247V36.8553C225.782 31.0251 229.749 27.7213 233.938 27.7213C236.837 27.7213 238.668 29.1511 239.93 30.8169V21.3497H243.953V45.6701H239.93V42.7411C238.626 44.5734 236.796 46.0449 233.938 46.0449C229.805 46.0449 225.782 42.7411 225.782 36.9109V36.9247ZM240 36.9247V36.8553C240 33.4544 237.6 31.2195 234.909 31.2195C232.218 31.2195 229.846 33.3572 229.846 36.8553V36.9247C229.846 40.3257 232.177 42.5606 234.909 42.5606C237.642 42.5606 240 40.2979 240 36.9247Z" fill="#26B4E9"/>
<path d="M261.208 28.0962H265.397L258.406 46.1837C257.005 49.779 255.438 51.1116 252.608 51.1116C250.944 51.1116 249.681 50.7091 248.447 50.0428L249.806 47.0444C250.541 47.4469 251.332 47.7107 252.164 47.7107C253.302 47.7107 253.995 47.2109 254.661 45.7117L247.337 28.0823H251.665L256.631 41.1447L261.194 28.0823L261.208 28.0962Z" fill="#26B4E9"/>
<path d="M282.874 42.9493V45.684H278.851V21.3636H282.874V31.0252C284.178 29.1928 286.009 27.7214 288.866 27.7214C292.999 27.7214 297.022 30.9835 297.022 36.8554V36.9248C297.022 42.755 293.027 46.0588 288.866 46.0588C285.939 46.0588 284.108 44.5874 282.874 42.9632V42.9493ZM292.93 36.9248V36.8554C292.93 33.4544 290.628 31.2195 287.909 31.2195C285.19 31.2195 282.777 33.4822 282.777 36.8554V36.9248C282.777 40.2841 285.176 42.5607 287.909 42.5607C290.641 42.5607 292.93 40.3951 292.93 36.9248Z" fill="#26B4E9"/>
<path d="M300.018 40.6172V40.5478C300.018 36.7442 302.986 34.8841 307.272 34.8841C309.242 34.8841 310.629 35.1895 312.002 35.6199V35.1895C312.002 32.6909 310.476 31.3582 307.647 31.3582C305.677 31.3582 304.221 31.7886 302.626 32.4549L301.558 29.2899C303.486 28.4292 305.386 27.8601 308.188 27.8601C310.823 27.8601 312.779 28.5542 314.013 29.8313C315.317 31.0945 315.914 32.9685 315.914 35.2589V45.6839H311.988V43.4906C310.795 44.9204 308.965 46.0587 306.26 46.0587C302.959 46.0587 300.032 44.157 300.032 40.6311L300.018 40.6172ZM312.072 39.354V38.1602C311.045 37.7576 309.672 37.4661 308.077 37.4661C305.483 37.4661 303.943 38.5627 303.943 40.3951V40.4645C303.943 42.158 305.441 43.1297 307.369 43.1297C310.033 43.1297 312.058 41.6028 312.058 39.3679L312.072 39.354Z" fill="#26B4E9"/>
<path d="M320.685 48.9878L322.183 45.9616C324.084 47.1276 326.039 47.8217 328.439 47.8217C332.031 47.8217 334.001 45.9616 334.001 42.4218V41.0614C332.531 42.9632 330.7 44.2958 327.815 44.2958C323.681 44.2958 319.825 41.228 319.825 36.0641V35.9947C319.825 30.803 323.723 27.7352 327.815 27.7352C330.783 27.7352 332.614 29.0956 333.973 30.7336V28.0961H337.996V42.0887C337.996 45.0593 337.233 47.2526 335.763 48.724C334.167 50.3204 331.699 51.0839 328.536 51.0839C325.637 51.0839 322.946 50.3482 320.671 48.9878H320.685ZM334.029 36.0225V35.9531C334.029 33.0935 331.671 31.1223 328.869 31.1223C326.067 31.1223 323.875 33.0518 323.875 35.9531V36.0225C323.875 38.8821 326.109 40.8532 328.869 40.8532C331.629 40.8532 334.029 38.8821 334.029 36.0225Z" fill="#26B4E9"/>
<path d="M54.6739 31.5526H52.4407V28.1933H54.6739V26.8884C54.6739 24.9589 55.1733 23.4875 56.1026 22.5574C57.0319 21.6274 58.3358 21.1554 60.0696 21.1554C61.4705 21.1554 62.4276 21.3497 63.3292 21.6274V25.0283C62.5247 24.7646 61.8312 24.598 60.9712 24.598C59.4454 24.598 58.6409 25.4309 58.6409 27.2632V28.2349H63.3015V31.5665H58.7103V45.6978H54.6878V31.5665L54.6739 31.5526Z" fill="#26B4E9"/>
<path d="M66.2975 28.0961H70.32V32.0662C71.4158 29.4288 73.4548 27.6381 76.5479 27.763V32.0246H76.3121C72.789 32.0246 70.32 34.3289 70.32 38.9931V45.684H66.2975V28.0961Z" fill="#26B4E9"/>
<path d="M80.1127 21.558H84.4403V25.3893H80.1127V21.558ZM80.2791 28.0962H84.3016V45.684H80.2791V28.0962Z" fill="#26B4E9"/>
<path d="M88.6709 36.9247V36.8553C88.6709 31.0251 92.6379 27.7213 96.8268 27.7213C99.7258 27.7213 101.557 29.1511 102.819 30.8169V21.3497H106.841V45.6701H102.819V42.7411C101.515 44.5734 99.6842 46.0449 96.8268 46.0449C92.6934 46.0449 88.6709 42.7411 88.6709 36.9109V36.9247ZM102.888 36.9247V36.8553C102.888 33.4544 100.489 31.2195 97.7978 31.2195C95.1069 31.2195 92.735 33.3572 92.735 36.8553V36.9247C92.735 40.3257 95.0652 42.5606 97.7978 42.5606C100.53 42.5606 102.888 40.2979 102.888 36.9247Z" fill="#26B4E9"/>
<path d="M110.739 40.6172V40.5478C110.739 36.7442 113.707 34.8841 117.993 34.8841C119.963 34.8841 121.35 35.1895 122.723 35.6199V35.1895C122.723 32.6909 121.198 31.3582 118.368 31.3582C116.398 31.3582 114.942 31.7886 113.347 32.4549L112.279 29.2899C114.207 28.4292 116.107 27.8601 118.909 27.8601C121.544 27.8601 123.5 28.5542 124.735 29.8313C126.038 31.0945 126.635 32.9685 126.635 35.2589V45.6839H122.709V43.4906C121.517 44.9204 119.686 46.0587 116.981 46.0587C113.68 46.0587 110.753 44.157 110.753 40.6311L110.739 40.6172ZM122.793 39.354V38.1602C121.766 37.7576 120.393 37.4661 118.798 37.4661C116.204 37.4661 114.664 38.5627 114.664 40.3951V40.4645C114.664 42.158 116.162 43.1297 118.091 43.1297C120.754 43.1297 122.779 41.6028 122.779 39.3679L122.793 39.354Z" fill="#26B4E9"/>
<path d="M142.961 28.0962H147.15L140.159 46.1837C138.758 49.779 137.19 51.1116 134.361 51.1116C132.696 51.1116 131.434 50.7091 130.2 50.0428L131.559 47.0444C132.294 47.4469 133.085 47.7107 133.917 47.7107C135.054 47.7107 135.748 47.2109 136.414 45.7117L129.09 28.0823H133.418L138.383 41.1447L142.947 28.0823L142.961 28.0962Z" fill="#26B4E9"/>
<path d="M160.576 48.9878L162.074 45.9616C163.975 47.1276 165.93 47.8217 168.33 47.8217C171.923 47.8217 173.892 45.9616 173.892 42.4218V41.0614C172.422 42.9632 170.591 44.2958 167.706 44.2958C163.572 44.2958 159.716 41.228 159.716 36.0641V35.9947C159.716 30.803 163.614 27.7352 167.706 27.7352C170.674 27.7352 172.505 29.0956 173.864 30.7336V28.0961H177.887V42.0887C177.887 45.0593 177.124 47.2526 175.654 48.724C174.059 50.3204 171.59 51.0839 168.427 51.0839C165.528 51.0839 162.837 50.3482 160.562 48.9878H160.576ZM173.92 36.0225V35.9531C173.92 33.0935 171.562 31.1223 168.76 31.1223C165.958 31.1223 163.767 33.0518 163.767 35.9531V36.0225C163.767 38.8821 166 40.8532 168.76 40.8532C171.52 40.8532 173.92 38.8821 173.92 36.0225Z" fill="#26B4E9"/>
<path d="M181.979 36.9942V36.9248C181.979 31.8997 185.973 27.7352 191.369 27.7352C196.765 27.7352 200.732 31.8303 200.732 36.8692V36.9386C200.732 41.936 196.737 46.1004 191.314 46.1004C185.89 46.1004 181.993 42.0054 181.993 37.0081L181.979 36.9942ZM196.696 36.9942V36.9248C196.696 33.8292 194.462 31.2611 191.3 31.2611C188.137 31.2611 186.001 33.7876 186.001 36.8554V36.9248C186.001 39.9926 188.234 42.5606 191.355 42.5606C194.476 42.5606 196.682 40.0342 196.682 36.9942H196.696Z" fill="#26B4E9"/>
<path d="M203.853 36.9942V36.9248C203.853 31.8997 207.848 27.7352 213.243 27.7352C218.639 27.7352 222.606 31.8303 222.606 36.8692V36.9386C222.606 41.936 218.611 46.1004 213.188 46.1004C207.764 46.1004 203.867 42.0054 203.867 37.0081L203.853 36.9942ZM218.57 36.9942V36.9248C218.57 33.8292 216.336 31.2611 213.174 31.2611C210.011 31.2611 207.875 33.7876 207.875 36.8554V36.9248C207.875 39.9926 210.108 42.5606 213.229 42.5606C216.35 42.5606 218.556 40.0342 218.556 36.9942H218.57Z" fill="#26B4E9"/>
<path d="M225.782 36.9247V36.8553C225.782 31.0251 229.749 27.7213 233.938 27.7213C236.837 27.7213 238.668 29.1511 239.93 30.8169V21.3497H243.953V45.6701H239.93V42.7411C238.626 44.5734 236.796 46.0449 233.938 46.0449C229.805 46.0449 225.782 42.7411 225.782 36.9109V36.9247ZM240 36.9247V36.8553C240 33.4544 237.6 31.2195 234.909 31.2195C232.218 31.2195 229.846 33.3572 229.846 36.8553V36.9247C229.846 40.3257 232.177 42.5606 234.909 42.5606C237.642 42.5606 240 40.2979 240 36.9247Z" fill="#26B4E9"/>
<path d="M261.208 28.0962H265.397L258.406 46.1837C257.005 49.779 255.438 51.1116 252.608 51.1116C250.944 51.1116 249.681 50.7091 248.447 50.0428L249.806 47.0444C250.541 47.4469 251.332 47.7107 252.164 47.7107C253.302 47.7107 253.995 47.2109 254.661 45.7117L247.337 28.0823H251.665L256.631 41.1447L261.194 28.0823L261.208 28.0962Z" fill="#26B4E9"/>
<path d="M282.874 42.9493V45.684H278.851V21.3636H282.874V31.0252C284.178 29.1928 286.009 27.7214 288.866 27.7214C292.999 27.7214 297.022 30.9835 297.022 36.8554V36.9248C297.022 42.755 293.027 46.0588 288.866 46.0588C285.939 46.0588 284.108 44.5874 282.874 42.9632V42.9493ZM292.93 36.9248V36.8554C292.93 33.4544 290.628 31.2195 287.909 31.2195C285.19 31.2195 282.777 33.4822 282.777 36.8554V36.9248C282.777 40.2841 285.176 42.5607 287.909 42.5607C290.641 42.5607 292.93 40.3951 292.93 36.9248Z" fill="#26B4E9"/>
<path d="M300.018 40.6172V40.5478C300.018 36.7442 302.986 34.8841 307.272 34.8841C309.242 34.8841 310.629 35.1895 312.002 35.6199V35.1895C312.002 32.6909 310.476 31.3582 307.647 31.3582C305.677 31.3582 304.221 31.7886 302.626 32.4549L301.558 29.2899C303.486 28.4292 305.386 27.8601 308.188 27.8601C310.823 27.8601 312.779 28.5542 314.013 29.8313C315.317 31.0945 315.914 32.9685 315.914 35.2589V45.6839H311.988V43.4906C310.795 44.9204 308.965 46.0587 306.26 46.0587C302.959 46.0587 300.032 44.157 300.032 40.6311L300.018 40.6172ZM312.072 39.354V38.1602C311.045 37.7576 309.672 37.4661 308.077 37.4661C305.483 37.4661 303.943 38.5627 303.943 40.3951V40.4645C303.943 42.158 305.441 43.1297 307.369 43.1297C310.033 43.1297 312.058 41.6028 312.058 39.3679L312.072 39.354Z" fill="#26B4E9"/>
<path d="M320.685 48.9878L322.183 45.9616C324.084 47.1276 326.039 47.8217 328.439 47.8217C332.031 47.8217 334.001 45.9616 334.001 42.4218V41.0614C332.531 42.9632 330.7 44.2958 327.815 44.2958C323.681 44.2958 319.825 41.228 319.825 36.0641V35.9947C319.825 30.803 323.723 27.7352 327.815 27.7352C330.783 27.7352 332.614 29.0956 333.973 30.7336V28.0961H337.996V42.0887C337.996 45.0593 337.233 47.2526 335.763 48.724C334.167 50.3204 331.699 51.0839 328.536 51.0839C325.637 51.0839 322.946 50.3482 320.671 48.9878H320.685ZM334.029 36.0225V35.9531C334.029 33.0935 331.671 31.1223 328.869 31.1223C326.067 31.1223 323.875 33.0518 323.875 35.9531V36.0225C323.875 38.8821 326.109 40.8532 328.869 40.8532C331.629 40.8532 334.029 38.8821 334.029 36.0225Z" fill="#26B4E9"/>
<g clip-path="url(#clip0_435_1357)">
<path d="M27.4045 19.5043C26.2148 23.2168 25.8182 24.9594 24.5471 27.5006C24.6989 27.6181 24.8479 27.7423 24.9914 27.8748C26.2912 26.6812 27.3314 25.2777 27.8317 23.199L28.8247 23.4383C28.2728 25.7314 27.0824 27.3377 25.687 28.6234C25.7657 28.722 25.8415 28.8229 25.9143 28.9258C27.4076 28.7087 28.7739 28.2518 29.9918 27.1501L30.6772 27.909C29.3964 29.0674 27.9438 29.607 26.4697 29.8709C26.5107 29.9562 26.5504 30.0425 26.5876 30.129C29.5015 30.4399 31.8856 29.9622 33.2818 27.7176C29.5953 26.9 32.3025 20.3234 27.4045 19.5043ZM19.5208 27.4185C19.0055 27.4153 18.5196 27.4983 18.111 27.6714L18.1058 27.6611C17.5292 27.9311 16.9883 28.3054 16.5113 28.7822C14.5932 30.7003 14.3491 33.6456 15.7765 35.8267C15.5108 35.1565 15.3923 34.4162 15.4878 33.6408C15.6305 32.48 16.2475 31.2666 17.4479 30.1033L18.1588 30.8365C17.0861 31.8761 16.6111 32.8701 16.5011 33.7657C16.391 34.6612 16.6419 35.4848 17.1232 36.2009C17.9705 37.462 19.5712 38.3143 20.9017 38.3663C22.1978 38.2703 23.4679 37.726 24.4615 36.7325C26.661 34.5329 26.661 30.9818 24.4615 28.7823C24.3161 28.6368 24.1651 28.5017 24.0087 28.3755C24.5493 29.0059 24.9375 29.7811 25.063 30.6758C25.2256 31.8341 24.9456 33.1652 24.0872 34.5997L23.2088 34.075C23.9759 32.7931 24.1768 31.7113 24.0513 30.8177C23.9259 29.9241 23.4728 29.194 22.8225 28.6267C21.9285 27.8469 20.6544 27.4254 19.5208 27.4185ZM13.3088 36.3786C10.5738 36.3849 9.60595 36.6477 6.94623 39.4019C10.5752 39.239 8.80998 45.2521 12.8235 46.3011C13.0189 43.6433 14.0402 41.5781 16.021 37.7903C14.7189 38.6412 13.5782 39.6778 12.7397 41.2732L11.8339 40.7982C12.6535 39.2388 13.7556 38.1412 14.9579 37.2777C13.5415 37.3963 12.1605 37.7459 10.7641 38.6277L10.2189 37.7647C11.4443 36.9909 12.6791 36.584 13.8983 36.3821C13.695 36.3808 13.4947 36.3783 13.3088 36.3786Z" fill="#EBE95D"/>
</g>
<defs>
<clipPath id="clip0_435_1357">
<rect width="28" height="28" fill="white" transform="translate(6.0097 19)"/>
</clipPath>
</defs>
</svg>
