<?xml version="1.0" encoding="UTF-8"?>
<svg id="Layer_1" xmlns="http://www.w3.org/2000/svg" version="1.1" viewBox="0 0 40.4 52">
  <!-- Generator: Adobe Illustrator 29.8.1, SVG Export Plug-In . SVG Version: 2.1.1 Build 2)  -->
  <defs>
    <style>
      .st0 {
        fill: #26b4e9;
      }
    </style>
  </defs>
  <path class="st0" d="M38.8,16.6c0-1-.9-1.7-1.9-1.7h-7.4v-5.6c0-5.1-4.1-9.3-9.3-9.3s-9.3,4.2-9.3,9.3v5.6H3.5c-1,0-1.8.8-1.9,1.7L0,46.1c-.2,3.1,2.2,5.7,5.2,5.9h29.6c3.1,0,5.6-2.5,5.6-5.6v-.3l-1.7-29.5h0ZM14.6,9.3c0-3.1,2.5-5.6,5.6-5.6s5.6,2.5,5.6,5.6v5.6h-11.1v-5.6h0Z"/>
</svg>