<svg width="48" height="39" viewBox="0 0 48 39" fill="none" xmlns="http://www.w3.org/2000/svg">
<g clip-path="url(#clip0_484_242)">
<path d="M43.989 3.14342C43.9319 1.42676 42.5264 0.0341058 40.7894 0.0113686C40.6237 0.0113686 40.458 0 40.2981 0H5.7936C4.96512 0 4.13665 0.0113686 3.30818 0.0113686C2.37686 0.0113686 1.46268 0.358111 0.834186 1.06296C0.245685 1.71666 0 2.52951 0 3.39353V31.7468C0 32.9235 0.605642 34.0376 1.65123 34.6117C2.63969 35.1517 3.86811 35.0153 4.95941 35.0153H27.991C27.8881 34.8448 27.7967 34.6458 27.7053 34.4526C27.6196 34.265 27.5339 34.0774 27.4596 33.8841C25.9626 30.1495 26.4711 25.6874 28.9566 22.4416C30.3564 20.6113 32.1962 19.2357 34.3616 18.4228C36.7213 17.5361 39.4182 17.4679 41.8293 18.1898C42.1778 18.2921 42.5149 18.4115 42.852 18.5479C43.0463 18.6275 43.2349 18.707 43.4234 18.798C43.6177 18.8889 43.8234 18.9856 43.9948 19.0822V3.19458C43.989 3.17753 43.989 3.16047 43.989 3.14342ZM38.624 8.44119C37.9783 8.82772 37.3384 9.21425 36.6928 9.60079C33.8645 11.3004 31.0363 12.9943 28.2081 14.6939C26.4197 15.7683 24.6256 16.8426 22.8373 17.9169C22.3288 18.2239 21.6203 18.2352 21.1061 17.9169C20.4604 17.5133 19.8148 17.1154 19.1691 16.7119C16.3352 14.9497 13.4955 13.1876 10.6616 11.4254C8.87894 10.317 7.10201 9.21426 5.31937 8.10582C4.50803 7.59991 4.26235 6.61084 4.7023 5.76957C5.1251 4.97376 6.28497 4.68387 7.04488 5.15566C7.69051 5.55356 8.33615 5.95715 8.98179 6.35505C11.8157 8.11718 14.6497 9.87363 17.4893 11.6358C18.9863 12.5623 20.4776 13.5059 21.9745 14.4211C22.3288 14.2108 22.683 14.0061 23.0373 13.7958C25.8655 12.0962 28.6937 10.408 31.522 8.70835C33.3103 7.63402 35.1044 6.55969 36.8927 5.48535C37.7155 4.99082 38.7382 5.33188 39.241 6.09926C39.7496 6.88938 39.3953 7.98076 38.624 8.44119Z" fill="#26B4E9"/>
<path d="M47.9543 28.6148C47.9429 28.4897 47.9314 28.359 47.9143 28.2339C47.8972 28.2055 47.8972 28.1032 47.8914 28.0691C47.8 27.5177 47.6686 26.972 47.4915 26.4434C47.4458 26.3126 47.4001 26.1819 47.3544 26.0511C47.3315 25.9886 47.3029 25.9204 47.2801 25.8579V25.8522C47.2629 25.8067 47.2287 25.7669 47.2172 25.7556C47.1201 25.5793 47.0573 25.3577 46.9658 25.1928C46.7144 24.7096 46.4288 24.2435 46.1088 23.8058C46.0802 23.7661 46.0517 23.7206 46.0174 23.6808C46.006 23.6694 45.9945 23.6581 45.9888 23.6467C45.9031 23.5444 45.8174 23.4364 45.726 23.334C45.566 23.1521 45.4003 22.9703 45.2289 22.7997C45.0289 22.5951 44.8175 22.4018 44.6004 22.2199C44.509 22.1403 44.4119 22.0608 44.3204 21.9869C44.309 21.9755 44.3033 21.9698 44.2919 21.9641C44.3033 21.9698 44.3147 21.9812 44.3262 21.9869C44.3433 21.9982 44.349 22.0039 44.3547 22.0096C44.3376 21.9926 44.2633 21.9357 44.2519 21.93C44.2519 21.93 44.2633 21.9414 44.2862 21.9584C44.2462 21.93 44.2005 21.8959 44.1605 21.8675C43.7434 21.5605 43.2977 21.2877 42.8406 21.049C42.6692 20.958 42.4921 20.8727 42.315 20.7932C42.2807 20.7761 42.2464 20.7647 42.2121 20.7477C42.2121 20.7477 42.2064 20.7477 42.2064 20.742C42.1721 20.725 42.1207 20.7079 42.0978 20.6965C41.8065 20.5828 41.5151 20.4805 41.218 20.3896C40.9037 20.2929 40.578 20.2134 40.2581 20.1508C40.0924 20.1167 39.9267 20.094 39.761 20.0656H39.641C39.6124 20.0599 39.5839 20.0599 39.5553 20.0542C38.9439 19.9917 38.3269 19.9803 37.7098 20.0201C37.5784 20.0258 37.447 20.0372 37.3156 20.0542C37.2984 20.0542 37.2641 20.0542 37.2356 20.0599C37.2356 20.0599 37.2127 20.0656 37.1556 20.0769C36.927 20.111 36.6928 20.1508 36.4699 20.202C35.9671 20.31 35.4758 20.4521 35.0015 20.6283C34.9044 20.6624 34.7216 20.6965 34.6473 20.7647C34.7044 20.742 34.7444 20.725 34.7616 20.7136C34.7502 20.7193 34.733 20.725 34.7102 20.7363C34.6873 20.7477 34.6644 20.7591 34.6416 20.7647C34.5959 20.7875 34.5502 20.8045 34.5045 20.8273C34.2988 20.9239 34.0988 21.0262 33.8988 21.1285C33.4589 21.3673 33.0361 21.6344 32.6361 21.9357C32.6075 21.9584 32.5733 21.9812 32.5447 22.0039L32.539 22.0096L32.5161 22.0323C32.419 22.1119 32.3219 22.1915 32.2304 22.2711C32.0533 22.4246 31.8819 22.5837 31.7105 22.7486C31.5334 22.9248 31.362 23.1067 31.1963 23.2886C31.122 23.3738 31.0477 23.4591 30.9792 23.5444C30.9392 23.5898 30.9049 23.641 30.8649 23.6865C30.8706 23.6808 30.8763 23.6694 30.882 23.6637C31.0306 23.4591 30.7563 23.8115 30.8649 23.6865C30.5792 24.0673 30.3164 24.4652 30.0821 24.8802C29.9564 25.0962 29.8422 25.3236 29.7393 25.5452C29.7165 25.5907 29.665 25.6703 29.6308 25.7385C29.6308 25.7556 29.625 25.784 29.6079 25.8238C29.5851 25.8806 29.5622 25.9431 29.5393 26C29.3622 26.4604 29.2194 26.9379 29.1051 27.4211C29.048 27.6712 29.0023 27.9156 28.9623 28.1714V28.1487V28.1771C28.9623 28.1941 28.9623 28.2112 28.9566 28.2225C28.9508 28.251 28.9508 28.2737 28.9451 28.3021C28.928 28.4329 28.9166 28.5636 28.9108 28.6943C28.8651 29.2798 28.8708 29.871 28.928 30.4565C28.9394 30.5588 28.9508 30.6554 28.9623 30.7577V30.7748C28.9737 30.9226 28.9223 30.5304 28.9623 30.7748C28.9623 30.7805 28.9623 30.7919 28.968 30.8032C28.9965 30.9681 29.0194 31.1329 29.0537 31.2921C29.1108 31.582 29.1851 31.8719 29.2651 32.1561C29.3565 32.4687 29.4651 32.7757 29.585 33.0826C29.585 33.0826 29.6308 33.1963 29.6536 33.2418C29.6422 33.219 29.6308 33.1906 29.625 33.1793C29.6308 33.1849 29.6308 33.1963 29.6422 33.2134C29.6593 33.2532 29.665 33.2645 29.665 33.2588C29.6822 33.3043 29.705 33.3441 29.705 33.3441C29.7679 33.4748 29.8307 33.6056 29.8936 33.7363C30.1393 34.2138 30.4192 34.6742 30.7392 35.1119C30.7849 35.1745 30.8306 35.237 30.8763 35.2938L30.882 35.2995C30.962 35.3905 31.0363 35.4871 31.1163 35.5837C31.282 35.777 31.4591 35.9703 31.6419 36.1521C31.8419 36.3568 32.0533 36.5501 32.2647 36.7376C32.3447 36.8058 32.4304 36.8797 32.5161 36.948C32.5218 36.9536 32.5333 36.965 32.5504 36.9764C32.5904 37.0105 32.6133 37.0332 32.6304 37.0446C32.619 37.0332 32.5961 37.0105 32.5733 36.9934C32.6075 37.0218 32.6418 37.0446 32.6704 37.0673C33.0989 37.38 33.5503 37.6642 34.0245 37.9143C34.2531 38.0337 34.493 38.1701 34.733 38.261C34.7102 38.2497 34.693 38.244 34.6873 38.2383C34.6987 38.2383 34.7216 38.2497 34.7616 38.2667C34.813 38.2894 34.8644 38.3065 34.9158 38.3292C35.0473 38.3804 35.1787 38.4259 35.3044 38.4713C35.8243 38.6476 36.3557 38.784 36.8928 38.8749C36.9442 38.8863 36.9956 38.8977 37.0527 38.909C37.0584 38.909 37.0813 38.909 37.1441 38.9204C37.287 38.9375 37.4298 38.9545 37.5727 38.9659C37.8355 38.9886 38.0926 39 38.3554 39C38.6183 39 38.8925 38.9943 39.1611 38.9772C39.2925 38.9659 39.4239 38.9602 39.5553 38.9431C39.6067 38.9375 39.6581 38.9318 39.7096 38.9261C39.6981 38.9261 39.6867 38.9318 39.681 38.9318C39.5096 38.9602 39.9781 38.8977 39.7153 38.9261C40.2009 38.8465 40.6809 38.7499 41.1551 38.6135C41.4008 38.5396 41.6408 38.46 41.8807 38.3747C41.9379 38.352 42.035 38.3292 42.115 38.3008C42.115 38.2951 42.1378 38.2781 42.1721 38.261C42.2407 38.2269 42.3092 38.1985 42.3778 38.1701C42.812 37.9711 43.2291 37.7438 43.6291 37.488C43.8405 37.3515 44.0462 37.2151 44.2462 37.0616C44.2804 37.0389 44.309 37.0162 44.3433 36.9877C44.3547 36.9764 44.3661 36.9707 44.3661 36.965C44.4633 36.8854 44.5604 36.8058 44.6518 36.7263C45.0118 36.4193 45.3432 36.0839 45.6574 35.7315C45.7546 35.6178 45.8517 35.5041 45.9488 35.3905C45.9545 35.3848 45.966 35.3677 45.9774 35.3563C45.9317 35.4302 46.0288 35.345 46.0402 35.2711C46.0402 35.2881 46.006 35.3222 45.9774 35.3507C45.9831 35.345 45.9888 35.3336 45.9945 35.3222C46.1431 35.1233 46.2859 34.9187 46.423 34.714C46.6802 34.3161 46.9144 33.9012 47.1201 33.4748C47.1544 33.4066 47.183 33.3384 47.2172 33.2702C47.2401 33.2247 47.2572 33.1793 47.2801 33.1338C47.2629 33.1793 47.2401 33.2247 47.2229 33.2645C47.2801 33.202 47.3029 33.0656 47.3372 32.986C47.4286 32.7473 47.5086 32.5085 47.5829 32.2698C47.7257 31.8037 47.8343 31.3262 47.9086 30.8487C47.9143 30.7975 47.9257 30.7464 47.9314 30.6952C47.9257 30.7464 47.92 30.7919 47.9143 30.843C47.9429 30.8032 47.9371 30.6611 47.9429 30.61C47.9543 30.5076 47.96 30.3996 47.9714 30.2973C47.9886 30.0302 48 29.7687 48 29.5015C47.9886 29.1889 47.9771 28.899 47.9543 28.6148ZM42.4521 31.15H40.1609V33.4805C40.1609 34.4355 39.3782 35.146 38.4469 35.1858C37.5212 35.2256 36.7328 34.373 36.7328 33.4805V31.15H34.413C33.4532 31.15 32.739 30.3712 32.699 29.4447C32.659 28.5238 33.516 27.7394 34.413 27.7394H36.7328V25.4827C36.7328 24.5277 37.5212 23.8172 38.4469 23.7774C39.3725 23.7376 40.1609 24.5903 40.1609 25.4827V27.7394H42.4521C43.412 27.7394 44.1262 28.5238 44.1662 29.4447C44.2119 30.3655 43.3491 31.15 42.4521 31.15Z" fill="#26B4E9"/>
</g>
<defs>
<clipPath id="clip0_484_242">
<rect width="48" height="39" fill="white"/>
</clipPath>
</defs>
</svg>
