<svg width="32" height="32" viewBox="0 0 32 32" fill="none" xmlns="http://www.w3.org/2000/svg">
<path fill-rule="evenodd" clip-rule="evenodd" d="M15.8075 0C7.07729 0 0 7.07722 0 15.8075C0 24.5377 7.07729 31.615 15.8075 31.615C24.5378 31.615 31.615 24.5377 31.615 15.8075C31.615 7.07722 24.5378 0 15.8075 0ZM15.8075 28.4535C8.83451 28.4535 3.16152 22.7805 3.16152 15.8075C3.16152 8.83444 8.83444 3.16152 15.8075 3.16152C22.7806 3.16152 28.4535 8.83444 28.4535 15.8075C28.4535 22.7805 22.7806 28.4535 15.8075 28.4535ZM17.7869 9.4845C17.7869 10.6306 16.9524 11.4605 15.8236 11.4605C14.649 11.4605 13.835 10.6306 13.835 9.46257C13.835 8.33999 14.671 7.50861 15.8236 7.50861C16.9524 7.50861 17.7869 8.33999 17.7869 9.4845ZM14.2302 14.2267H17.3917V23.7112H14.2302V14.2267Z" fill="#26B4E9"/>
</svg>
