<svg width="31" height="32" viewBox="0 0 31 32" fill="none" xmlns="http://www.w3.org/2000/svg">
<g clip-path="url(#clip0_438_119)">
<path d="M3.04859 28.604V15.0547C2.21023 15.0547 1.49381 14.7536 0.899334 14.1665C0.304859 13.5794 0 12.8718 0 12.0438V9.03282C0 8.20481 0.304859 7.49724 0.899334 6.9101C1.49381 6.32296 2.21023 6.02187 3.04859 6.02187H7.92634C7.80439 5.79605 7.71294 5.55517 7.68245 5.29924C7.65196 5.04331 7.62148 4.78738 7.62148 4.50134C7.62148 3.25179 8.06352 2.1829 8.96286 1.29467C9.86219 0.406437 10.9292 -0.0301514 12.2096 -0.0301514C12.7888 -0.0301514 13.3376 0.075232 13.8558 0.285999C14.3741 0.496766 14.8314 0.797861 15.2734 1.17423C15.7002 0.767752 16.1728 0.466656 16.691 0.270944C17.1941 0.0752321 17.7428 -0.0301514 18.3373 -0.0301514C19.6024 -0.0301514 20.6847 0.406437 21.584 1.29467C22.4834 2.1829 22.9254 3.23673 22.9254 4.50134C22.9254 4.77232 22.8949 5.02825 22.8492 5.26913C22.8035 5.51 22.7272 5.75088 22.6205 6.00681H27.4983C28.3367 6.00681 29.0531 6.30791 29.6476 6.89504C30.242 7.48218 30.5469 8.18975 30.5469 9.01777V12.0287C30.5469 12.8567 30.242 13.5643 29.6476 14.1514C29.0531 14.7386 28.3367 15.0397 27.4983 15.0397V28.589C27.4983 29.417 27.1934 30.1246 26.599 30.7117C26.0045 31.2988 25.2881 31.5999 24.4497 31.5999H6.09718C5.25882 31.5999 4.5424 31.2988 3.94793 30.7117C3.35345 30.1246 3.04859 29.417 3.04859 28.589V28.604ZM18.2915 3.01091C17.8647 3.01091 17.4989 3.16146 17.2093 3.4475C16.9197 3.73354 16.7673 4.09486 16.7673 4.51639C16.7673 4.93792 16.9197 5.29924 17.2093 5.58528C17.4989 5.87132 17.8647 6.02187 18.2915 6.02187C18.7184 6.02187 19.0842 5.87132 19.3738 5.58528C19.6634 5.29924 19.8158 4.93792 19.8158 4.51639C19.8158 4.09486 19.6634 3.73354 19.3738 3.4475C19.0842 3.16146 18.7184 3.01091 18.2915 3.01091ZM10.6701 4.51639C10.6701 4.93792 10.8225 5.29924 11.1121 5.58528C11.4017 5.87132 11.7676 6.02187 12.1944 6.02187C12.6212 6.02187 12.987 5.87132 13.2766 5.58528C13.5662 5.29924 13.7187 4.93792 13.7187 4.51639C13.7187 4.09486 13.5662 3.73354 13.2766 3.4475C12.987 3.16146 12.6212 3.01091 12.1944 3.01091C11.7676 3.01091 11.4017 3.16146 11.1121 3.4475C10.8225 3.73354 10.6701 4.09486 10.6701 4.51639ZM3.04859 9.03282V12.0438H13.7187V9.03282H3.04859ZM13.7187 28.604V15.0547H6.09718V28.604H13.7187ZM16.7673 28.604H24.3887V15.0547H16.7673V28.604ZM27.4373 12.0438V9.03282H16.7673V12.0438H27.4373Z" fill="#26B4E9"/>
</g>
<defs>
<clipPath id="clip0_438_119">
<rect width="30.2977" height="31.8126" fill="white"/>
</clipPath>
</defs>
</svg>
