<svg width="32" height="32" viewBox="0 0 32 32" fill="none" xmlns="http://www.w3.org/2000/svg">
<g clip-path="url(#clip0_438_136)">
<path d="M3.51278 31.615C2.54677 31.615 1.72126 31.2637 1.03627 30.5788C0.351278 29.8938 0 29.0683 0 28.1022V3.51278C0 2.54677 0.351278 1.72126 1.03627 1.03627C1.72126 0.351278 2.54677 0 3.51278 0H28.1022C29.0683 0 29.8938 0.351278 30.5788 1.03627C31.2637 1.72126 31.615 2.54677 31.615 3.51278V28.1022C31.615 29.0683 31.2637 29.8938 30.5788 30.5788C29.8938 31.2637 29.0683 31.615 28.1022 31.615H3.51278ZM3.51278 28.1022H28.1022V3.51278H3.51278V28.1022ZM8.78195 24.5895H17.5639C18.0557 24.5895 18.4772 24.4138 18.8109 24.0801C19.1447 23.7464 19.3203 23.3249 19.3203 22.8331C19.3203 22.3413 19.1447 21.9197 18.8109 21.586C18.4772 21.2523 18.0557 21.0767 17.5639 21.0767H8.78195C8.29016 21.0767 7.86863 21.2523 7.53491 21.586C7.2012 21.9197 7.02556 22.3413 7.02556 22.8331C7.02556 23.3249 7.2012 23.7464 7.53491 24.0801C7.86863 24.4138 8.29016 24.5895 8.78195 24.5895ZM8.78195 17.5639H22.8331C23.3249 17.5639 23.7464 17.3883 24.0801 17.0545C24.4138 16.7208 24.5895 16.2993 24.5895 15.8075C24.5895 15.3157 24.4138 14.8942 24.0801 14.5605C23.7464 14.2268 23.3249 14.0511 22.8331 14.0511H8.78195C8.29016 14.0511 7.86863 14.2268 7.53491 14.5605C7.2012 14.8942 7.02556 15.3157 7.02556 15.8075C7.02556 16.2993 7.2012 16.7208 7.53491 17.0545C7.86863 17.3883 8.29016 17.5639 8.78195 17.5639ZM8.78195 10.5383H22.8331C23.3249 10.5383 23.7464 10.3627 24.0801 10.029C24.4138 9.69527 24.5895 9.27374 24.5895 8.78195C24.5895 8.29016 24.4138 7.86863 24.0801 7.53491C23.7464 7.2012 23.3249 7.02556 22.8331 7.02556H8.78195C8.29016 7.02556 7.86863 7.2012 7.53491 7.53491C7.2012 7.86863 7.02556 8.29016 7.02556 8.78195C7.02556 9.27374 7.2012 9.69527 7.53491 10.029C7.86863 10.3627 8.29016 10.5383 8.78195 10.5383Z" fill="#26B4E9"/>
</g>
<defs>
<clipPath id="clip0_438_136">
<rect width="31.615" height="31.615" fill="white"/>
</clipPath>
</defs>
</svg>
