<svg width="32" height="32" viewBox="0 0 32 32" fill="none" xmlns="http://www.w3.org/2000/svg">
<g clip-path="url(#clip0_484_282)">
<path fill-rule="evenodd" clip-rule="evenodd" d="M15.81 0C7.08 0 0 7.08 0 15.81C0 24.54 7.08 31.62 15.81 31.62C24.54 31.62 31.62 24.54 31.62 15.81C31.62 7.08 24.54 0 15.81 0ZM15.81 28.45C8.84 28.45 3.16 22.78 3.16 15.8C3.16 8.82 8.83 3.16 15.81 3.16C22.79 3.16 28.46 8.83 28.46 15.81C28.46 22.79 22.79 28.46 15.81 28.46V28.45Z" fill="#26B4E9"/>
<path d="M21.9899 15.81L13.5899 24.21L11.6299 22.25L18.0699 15.81L11.6299 9.37003L13.5899 7.41003L21.9899 15.81Z" fill="#26B4E9"/>
</g>
<defs>
<clipPath id="clip0_484_282">
<rect width="31.61" height="31.61" fill="white"/>
</clipPath>
</defs>
</svg>
